<svg xmlns="http://www.w3.org/2000/svg" viewBox="0 0 593.75 143.75" data-asc="1" width="593.75" height="143.75"><g fill="#000000"><g transform="translate(0, 0)"><path d="M75 43.75L75 0L112.50 0L112.50 6.25L118.75 6.25L118.75 18.75L112.50 18.75L112.50 25L118.75 25L118.75 37.50L112.50 37.50L112.50 43.75L75 43.75M87.50 18.75L106.25 18.75L106.25 6.25L87.50 6.25L87.50 18.75M87.50 37.50L106.25 37.50L106.25 25L87.50 25L87.50 37.50ZM131.25 43.75L131.25 37.50L125 37.50L125 12.50L137.50 12.50L137.50 37.50L156.25 37.50L156.25 12.50L168.75 12.50L168.75 43.75L131.25 43.75ZM175 43.75L175 37.50L181.25 37.50L181.25 31.25L187.50 31.25L187.50 25L193.75 25L193.75 18.75L175 18.75L175 12.50L218.75 12.50L218.75 18.75L212.50 18.75L212.50 25L206.25 25L206.25 31.25L200 31.25L200 37.50L218.75 37.50L218.75 43.75L175 43.75ZM225 43.75L225 37.50L231.25 37.50L231.25 31.25L237.50 31.25L237.50 25L243.75 25L243.75 18.75L225 18.75L225 12.50L268.75 12.50L268.75 18.75L262.50 18.75L262.50 25L256.25 25L256.25 31.25L250 31.25L250 37.50L268.75 37.50L268.75 43.75L225 43.75ZM281.25 43.75L281.25 37.50L275 37.50L275 18.75L281.25 18.75L281.25 12.50L312.50 12.50L312.50 18.75L318.75 18.75L318.75 31.25L287.50 31.25L287.50 37.50L312.50 37.50L312.50 43.75L281.25 43.75M287.50 25L306.25 25L306.25 18.75L287.50 18.75L287.50 25ZM343.75 18.75L350 18.75L350 25L343.75 25L343.75 43.75L331.25 43.75L331.25 12.50L343.75 12.50L343.75 18.75M368.75 12.50L368.75 18.75L350 18.75L350 12.50L368.75 12.50ZM443.75 6.25L443.75 0L456.25 0L456.25 6.25L443.75 6.25M431.25 43.75L431.25 37.50L443.75 37.50L443.75 18.75L437.50 18.75L437.50 12.50L456.25 12.50L456.25 37.50L468.75 37.50L468.75 43.75L431.25 43.75ZM475 43.75L475 37.50L506.25 37.50L506.25 31.25L481.25 31.25L481.25 25L475 25L475 18.75L481.25 18.75L481.25 12.50L512.50 12.50L512.50 18.75L487.50 18.75L487.50 25L512.50 25L512.50 31.25L518.75 31.25L518.75 37.50L512.50 37.50L512.50 43.75L475 43.75Z"/></g><g transform="translate(0, 50)"><path d="M6.25 43.75L6.25 37.50L0 37.50L0 18.75L6.25 18.75L6.25 12.50L37.50 12.50L37.50 18.75L43.75 18.75L43.75 37.50L37.50 37.50L37.50 43.75L6.25 43.75M12.50 37.50L31.25 37.50L31.25 18.75L12.50 18.75L12.50 37.50ZM50 43.75L50 12.50L87.50 12.50L87.50 18.75L93.75 18.75L93.75 43.75L81.25 43.75L81.25 18.75L62.50 18.75L62.50 43.75L50 43.75ZM168.75 43.75L168.75 18.75L156.25 18.75L156.25 12.50L168.75 12.50L168.75 0L181.25 0L181.25 12.50L193.75 12.50L193.75 18.75L181.25 18.75L181.25 43.75L168.75 43.75ZM200 43.75L200 0L212.50 0L212.50 12.50L237.50 12.50L237.50 18.75L243.75 18.75L243.75 43.75L231.25 43.75L231.25 18.75L212.50 18.75L212.50 43.75L200 43.75ZM256.25 43.75L256.25 37.50L250 37.50L250 18.75L256.25 18.75L256.25 12.50L287.50 12.50L287.50 18.75L293.75 18.75L293.75 31.25L262.50 31.25L262.50 37.50L287.50 37.50L287.50 43.75L256.25 43.75M262.50 25L281.25 25L281.25 18.75L262.50 18.75L262.50 25ZM356.25 43.75L356.25 37.50L350 37.50L350 18.75L356.25 18.75L356.25 12.50L387.50 12.50L387.50 18.75L393.75 18.75L393.75 37.50L387.50 37.50L387.50 43.75L356.25 43.75M362.50 37.50L381.25 37.50L381.25 18.75L362.50 18.75L362.50 37.50ZM418.75 43.75L418.75 18.75L406.25 18.75L406.25 12.50L418.75 12.50L418.75 0L431.25 0L431.25 12.50L443.75 12.50L443.75 18.75L431.25 18.75L431.25 43.75L418.75 43.75ZM450 43.75L450 0L462.50 0L462.50 12.50L487.50 12.50L487.50 18.75L493.75 18.75L493.75 43.75L481.25 43.75L481.25 18.75L462.50 18.75L462.50 43.75L450 43.75ZM506.25 43.75L506.25 37.50L500 37.50L500 18.75L506.25 18.75L506.25 12.50L537.50 12.50L537.50 18.75L543.75 18.75L543.75 31.25L512.50 31.25L512.50 37.50L537.50 37.50L537.50 43.75L506.25 43.75M512.50 25L531.25 25L531.25 18.75L512.50 18.75L512.50 25ZM568.75 18.75L575 18.75L575 25L568.75 25L568.75 43.75L556.25 43.75L556.25 12.50L568.75 12.50L568.75 18.75M593.75 12.50L593.75 18.75L575 18.75L575 12.50L593.75 12.50Z"/></g><g transform="translate(0, 100)"><path d="M200 43.75L200 37.50L231.25 37.50L231.25 31.25L206.25 31.25L206.25 25L200 25L200 18.75L206.25 18.75L206.25 12.50L237.50 12.50L237.50 18.75L212.50 18.75L212.50 25L237.50 25L237.50 31.25L243.75 31.25L243.75 37.50L237.50 37.50L237.50 43.75L200 43.75ZM268.75 6.25L268.75 0L281.25 0L281.25 6.25L268.75 6.25M256.25 43.75L256.25 37.50L268.75 37.50L268.75 18.75L262.50 18.75L262.50 12.50L281.25 12.50L281.25 37.50L293.75 37.50L293.75 43.75L256.25 43.75ZM306.25 43.75L306.25 37.50L300 37.50L300 18.75L306.25 18.75L306.25 12.50L331.25 12.50L331.25 0L343.75 0L343.75 43.75L306.25 43.75M312.50 37.50L331.25 37.50L331.25 18.75L312.50 18.75L312.50 37.50ZM356.25 43.75L356.25 37.50L350 37.50L350 18.75L356.25 18.75L356.25 12.50L387.50 12.50L387.50 18.75L393.75 18.75L393.75 31.25L362.50 31.25L362.50 37.50L387.50 37.50L387.50 43.75L356.25 43.75M362.50 25L381.25 25L381.25 18.75L362.50 18.75L362.50 25Z"/></g></g></svg>